<?xml version="1.0" standalone="no"?>
<!DOCTYPE svg PUBLIC "-//W3C//DTD SVG 20010904//EN"
 "http://www.w3.org/TR/2001/REC-SVG-20010904/DTD/svg10.dtd">
<svg version="1.0" xmlns="http://www.w3.org/2000/svg"
 width="512.000000pt" height="512.000000pt" viewBox="0 0 512.000000 512.000000"
 preserveAspectRatio="xMidYMid meet">

<g transform="translate(0.000000,512.000000) scale(0.100000,-0.100000)"
fill="#000000" stroke="none">
<path d="M1880 3813 c-134 -22 -275 -111 -350 -218 -24 -35 -181 -306 -402
-692 -39 -68 -79 -150 -89 -184 -26 -84 -26 -234 1 -320 17 -56 234 -446 443
-798 96 -160 205 -247 358 -285 94 -23 980 -24 1078 -1 126 30 247 112 318
216 29 43 353 607 353 615 0 3 -100 3 -222 2 l-222 -3 -113 -195 c-63 -107
-123 -205 -135 -217 -12 -13 -38 -28 -57 -34 -23 -6 -194 -9 -481 -7 -436 3
-446 3 -475 24 -18 13 -61 75 -104 150 -372 642 -375 647 -375 694 0 39 15 70
116 245 64 110 168 290 232 401 82 143 123 204 141 212 19 9 159 12 496 12
l471 0 26 -28 c15 -16 74 -110 132 -211 58 -100 117 -202 132 -227 l28 -44
220 0 c122 0 219 3 217 8 -2 4 -87 153 -188 332 -217 383 -259 435 -393 500
-45 21 -105 43 -134 49 -51 10 -962 14 -1022 4z"/>
<path d="M2480 2661 c-19 -10 -45 -33 -57 -51 -31 -44 -32 -129 -2 -177 41
-66 -7 -63 897 -63 l819 0 34 23 c43 29 74 101 65 150 -9 49 -45 99 -86 119
-32 17 -93 18 -835 18 -760 0 -802 -1 -835 -19z"/>
</g>
</svg>
